<svg xmlns="http://www.w3.org/2000/svg" width="1404" height="1404" viewBox="0 0 1404 1404" version="1.1"><path d="M 1029.039 483.169 C 979.195 490.287, 949.249 543.836, 962.920 601.401 C 973.356 645.342, 1007.492 682.630, 1046.292 692.472 C 1060.681 696.122, 1072.374 696.629, 1084.500 694.129 C 1109.351 689.005, 1129.039 673.089, 1140.367 648.967 C 1147.535 633.703, 1149.428 624.543, 1149.454 605 C 1149.468 595.044, 1148.957 586.120, 1148.168 582.500 C 1142.666 557.275, 1131.324 535.015, 1115.290 517.970 C 1096.529 498.027, 1073.628 485.697, 1050.409 483.037 C 1040.256 481.874, 1038.014 481.888, 1029.039 483.169 M 582.269 561.086 C 559.849 563.925, 540.584 574.698, 526.543 592.247 C 515.507 606.040, 507.208 624.633, 503.889 643 C 502.046 653.200, 502.266 676.258, 504.315 687.636 C 512.300 731.974, 540.064 767.397, 577.277 780.724 C 583.674 783.015, 586.428 783.362, 601.353 783.758 C 619.890 784.250, 624.482 783.493, 636.846 777.906 C 656.177 769.170, 674.525 748.793, 683.131 726.500 C 688.892 711.579, 691.292 698.361, 691.303 681.500 C 691.317 660.156, 687.128 641.563, 678.039 622.628 C 663.183 591.677, 635.453 568.211, 607 562.511 C 597.724 560.653, 589.449 560.176, 582.269 561.086 M 940 750.664 C 934.272 753.121, 930.096 757.943, 924.987 768 C 911.142 795.250, 897.190 807.666, 873.692 813.650 C 863.832 816.161, 860.774 816.493, 848 816.442 C 827.020 816.358, 822.353 814.199, 809.740 798.744 C 804.525 792.354, 796.493 788.511, 788.343 788.505 C 782.972 788.501, 781.695 788.891, 778.343 791.564 C 772.698 796.065, 770.619 800.961, 770.775 809.380 C 770.963 819.537, 774.896 826.989, 785.927 838.094 C 793.109 845.325, 796.041 847.479, 804 851.370 C 819.157 858.780, 827.311 860.491, 847.500 860.496 C 864.847 860.500, 872.139 859.536, 889.673 854.920 C 899.672 852.287, 905.663 849.793, 913.634 844.942 C 936.679 830.919, 948.503 817.706, 964.144 788.500 C 969.282 778.907, 969.500 778.188, 969.500 770.840 C 969.500 763.955, 969.196 762.741, 966.494 758.840 C 960.743 750.538, 948.851 746.868, 940 750.664" stroke="none" fill="#2d2c32" fill-rule="evenodd"/><path d="M 574 287 C 572.625 287.440, 559.013 287.845, 543.750 287.900 C 525.983 287.964, 516 288.360, 516 289 C 516 289.600, 512 290, 506 290 C 500 290, 496 290.400, 496 291 C 496 291.577, 492.853 292, 488.559 292 C 484.466 292, 480.840 292.450, 480.500 293 C 480.160 293.550, 477.996 293.998, 475.691 293.995 C 467.974 293.986, 445.520 296.159, 443.764 297.085 C 442.809 297.588, 439.798 298, 437.073 298 C 434.348 298, 431.840 298.450, 431.500 299 C 431.160 299.550, 429.363 300, 427.506 300 C 425.649 300, 422.904 300.466, 421.406 301.036 C 419.908 301.605, 415.379 302.139, 411.341 302.221 C 407.304 302.303, 404 302.737, 404 303.185 C 404 303.633, 402.002 304, 399.559 304 C 397.116 304, 394.869 304.402, 394.565 304.894 C 394.261 305.386, 392.322 306.002, 390.256 306.262 C 388.190 306.522, 383.891 307.470, 380.701 308.368 C 377.512 309.265, 373.151 310, 371.010 310 C 368.870 310, 366.840 310.450, 366.500 311 C 366.160 311.550, 364.360 312, 362.500 312 C 360.640 312, 358.864 312.411, 358.554 312.913 C 358.243 313.415, 356.079 314.141, 353.745 314.526 C 351.410 314.911, 348.940 315.678, 348.255 316.231 C 347.571 316.784, 346.109 317, 345.006 316.712 C 343.904 316.424, 342.805 316.506, 342.564 316.896 C 342.324 317.285, 339.848 318.224, 337.063 318.983 C 334.279 319.741, 332 320.730, 332 321.181 C 332 321.631, 331.091 322, 329.979 322 C 327.673 322, 312.758 326.173, 312 327.031 C 311.725 327.342, 308.575 328.458, 305 329.511 C 301.425 330.565, 297.375 332.003, 296 332.707 C 294.625 333.411, 293.022 333.990, 292.438 333.994 C 291.412 334, 284.323 337.062, 280.764 339.037 C 279.809 339.567, 278.466 340, 277.779 340 C 277.093 340, 274.275 341.088, 271.516 342.417 C 254.019 350.849, 248.852 353.027, 247.836 352.399 C 247.196 352.003, 246.962 352.129, 247.305 352.684 C 247.857 353.577, 224.409 366, 222.171 366 C 221.662 366, 220.701 366.656, 220.035 367.457 C 219.370 368.259, 215.602 370.752, 211.663 372.998 C 200.405 379.415, 192.593 384.266, 188.711 387.250 C 186.743 388.762, 184.848 390, 184.500 390 C 183.970 390, 181.138 391.971, 175.501 396.262 C 174.950 396.681, 172.700 398.385, 170.500 400.048 C 165.484 403.840, 160.865 407.574, 156.024 411.750 C 153.953 413.538, 151.900 415, 151.464 415 C 149.714 415, 122.634 441.346, 110.342 455.007 C 99.658 466.881, 77 495.870, 77 497.664 C 77 498.020, 75.954 499.704, 74.676 501.406 C 73.398 503.108, 72.041 505.175, 71.660 506 C 71.279 506.825, 69.648 509.525, 68.034 512 C 66.421 514.475, 64.328 518.075, 63.383 520 C 62.438 521.925, 61.090 524.183, 60.387 525.018 C 58.567 527.182, 47 550.170, 47 551.625 C 47 553.136, 43.766 559.382, 42.750 559.833 C 42.337 560.017, 42 561.014, 42 562.049 C 42 563.781, 41.029 566.436, 37.445 574.500 C 35.793 578.219, 33.755 584.519, 31.461 593 C 30.494 596.575, 29.320 599.927, 28.851 600.450 C 28.383 600.972, 28 602.912, 28 604.759 C 28 606.606, 27.581 607.859, 27.070 607.543 C 26.558 607.227, 26.152 608.438, 26.167 610.234 C 26.182 612.030, 25.435 616.650, 24.509 620.500 C 23.582 624.350, 22.591 629.188, 22.307 631.250 C 22.022 633.313, 21.387 635, 20.895 635 C 20.403 635, 20 637.475, 20 640.500 C 20 643.525, 19.651 646, 19.225 646 C 18.798 646, 18.391 650.167, 18.320 655.260 C 18.248 660.353, 17.697 667.186, 17.095 670.444 C 15.768 677.621, 15.624 721.213, 16.923 722.550 C 17.431 723.072, 17.993 730.136, 18.173 738.247 C 18.353 746.358, 18.837 752.995, 19.250 752.997 C 19.663 752.999, 20 755.475, 20 758.500 C 20 761.525, 20.450 764, 21 764 C 21.550 764, 22 766.223, 22 768.941 C 22 771.659, 22.450 774.160, 23 774.500 C 23.550 774.840, 24 776.471, 24 778.125 C 24 779.778, 24.476 782.021, 25.058 783.108 C 25.639 784.195, 26.167 787.336, 26.229 790.089 C 26.292 792.842, 26.716 795.325, 27.172 795.606 C 27.627 795.888, 28 797.441, 28 799.059 C 28 800.677, 28.450 802, 29 802 C 29.550 802, 30 803.323, 30 804.941 C 30 806.559, 30.374 808.113, 30.831 808.396 C 31.288 808.678, 32.264 812.100, 33 816 C 33.736 819.900, 34.712 823.322, 35.169 823.604 C 35.626 823.887, 36 825.351, 36 826.859 C 36 828.367, 36.385 830.027, 36.855 830.550 C 37.326 831.072, 38.762 834.650, 40.048 838.500 C 41.334 842.350, 42.749 845.928, 43.193 846.450 C 43.637 846.972, 44 848.216, 44 849.214 C 44 850.211, 44.450 851.921, 45 853.014 C 45.550 854.106, 46.450 855.894, 47 856.986 C 47.550 858.079, 48 860.066, 48 861.403 C 48 862.740, 48.338 863.983, 48.750 864.167 C 50.310 864.860, 54.001 872.890, 54.022 875.636 C 54.034 877.211, 54.924 879.625, 56 881 C 57.076 882.375, 57.966 884.486, 57.978 885.691 C 57.990 886.896, 58.388 888.122, 58.863 888.415 C 59.684 888.923, 61.830 895.554, 62.360 899.221 C 62.497 900.168, 62.922 901.255, 63.304 901.638 C 63.687 902.020, 64 903.608, 64 905.167 C 64 906.725, 64.450 908, 65 908 C 65.550 908, 66 909.260, 66 910.800 C 66 912.340, 66.494 914.094, 67.098 914.698 C 67.709 915.309, 68.183 919.164, 68.167 923.382 C 68.151 927.553, 68.556 931.226, 69.069 931.542 C 70.389 932.359, 70.270 957.715, 68.941 958.536 C 68.341 958.907, 68.154 960.423, 68.509 962.040 C 69.068 964.585, 67.151 974.155, 65.012 979.500 C 64.572 980.600, 63.435 983.750, 62.485 986.500 C 61.536 989.250, 59.688 993.469, 58.380 995.876 C 57.071 998.283, 56 1000.920, 56 1001.736 C 56 1002.552, 54.671 1005.758, 53.048 1008.860 C 51.424 1011.962, 49.160 1017.650, 48.018 1021.500 C 46.875 1025.350, 45.503 1029.882, 44.970 1031.571 C 44.436 1033.260, 44 1035.623, 44 1036.821 C 44 1038.019, 43.550 1039, 43 1039 C 42.381 1039, 42 1044.333, 42 1053 C 42 1061.667, 42.381 1067, 43 1067 C 43.550 1067, 44 1068.237, 44 1069.750 C 44 1077.902, 53.327 1098.800, 62.408 1110.996 C 68.499 1119.176, 79.967 1132.376, 81.850 1133.375 C 82.758 1133.856, 86.200 1136.826, 89.500 1139.976 C 92.800 1143.126, 97.713 1147.232, 100.417 1149.101 C 103.122 1150.971, 106.300 1153.400, 107.480 1154.500 C 108.660 1155.600, 111.157 1157.400, 113.028 1158.500 C 114.899 1159.600, 117.419 1161.175, 118.629 1162 C 119.838 1162.825, 125.254 1166.146, 130.664 1169.379 C 136.074 1172.613, 142.075 1176.223, 144 1177.401 C 145.925 1178.580, 152.450 1182.009, 158.500 1185.022 C 164.550 1188.035, 169.650 1190.838, 169.833 1191.250 C 170.017 1191.662, 170.849 1192, 171.683 1192 C 172.518 1192, 176.989 1193.800, 181.619 1196 C 186.250 1198.200, 190.338 1200, 190.704 1200 C 191.336 1200, 194.524 1201.372, 203.500 1205.505 C 205.700 1206.518, 207.950 1207.381, 208.500 1207.423 C 210.106 1207.546, 221.451 1212.307, 222 1213.088 C 222.275 1213.479, 224.075 1214.074, 226 1214.409 C 229.980 1215.103, 239.712 1218.378, 240.686 1219.353 C 241.042 1219.709, 242.308 1220, 243.500 1220 C 244.692 1220, 246.004 1220.338, 246.417 1220.750 C 246.829 1221.162, 247.467 1221.518, 247.833 1221.540 C 248.989 1221.610, 262.406 1226.099, 264.543 1227.130 C 265.666 1227.672, 267.241 1228.230, 268.043 1228.370 C 273.052 1229.243, 284 1232.572, 284 1233.221 C 284 1233.650, 285.012 1234.008, 286.250 1234.019 C 287.488 1234.029, 292.775 1235.210, 298 1236.643 C 303.225 1238.077, 308.963 1239.468, 310.750 1239.734 C 312.538 1240.001, 314 1240.568, 314 1240.994 C 314 1241.421, 316.587 1242.090, 319.750 1242.482 C 322.913 1242.874, 327.300 1243.819, 329.500 1244.583 C 331.700 1245.346, 334.486 1245.977, 335.691 1245.985 C 336.896 1245.993, 338.160 1246.450, 338.500 1247 C 338.840 1247.550, 340.666 1248, 342.559 1248 C 344.452 1248, 346 1248.436, 346 1248.970 C 346 1249.503, 347.462 1249.898, 349.250 1249.849 C 351.038 1249.799, 356.274 1250.712, 360.887 1251.879 C 365.500 1253.046, 370.311 1254, 371.578 1254 C 372.845 1254, 374.160 1254.450, 374.500 1255 C 374.840 1255.550, 376.666 1256, 378.559 1256 C 380.452 1256, 382 1256.425, 382 1256.943 C 382 1257.462, 384.587 1257.863, 387.750 1257.834 C 390.913 1257.805, 397.325 1258.699, 402 1259.820 C 412.735 1262.396, 416.384 1263.081, 422 1263.571 C 433.533 1264.580, 446 1266.460, 446 1267.191 C 446 1267.636, 448.250 1268, 451 1268 C 453.750 1268, 456 1268.450, 456 1269 C 456 1269.557, 458.686 1270, 462.059 1270 C 465.516 1270, 467.873 1270.397, 467.546 1270.925 C 467.210 1271.468, 471.078 1271.840, 476.923 1271.826 C 482.395 1271.813, 487.385 1272.120, 488.011 1272.507 C 489.361 1273.341, 502.261 1274.935, 513.493 1275.655 C 517.889 1275.937, 521.730 1276.563, 522.029 1277.047 C 522.328 1277.531, 528.406 1278.166, 535.536 1278.458 C 563.716 1279.612, 572.539 1280.225, 573.450 1281.094 C 573.973 1281.592, 579.260 1282, 585.200 1282 C 591.733 1282, 596 1282.395, 596 1283 C 596 1283.627, 602.333 1284, 613 1284 C 623.530 1284, 630 1284.376, 630 1284.988 C 630 1285.631, 657.975 1285.976, 710 1285.976 C 762 1285.975, 790 1285.630, 790 1284.988 C 790 1284.375, 796.646 1284, 807.500 1284 C 817.748 1284, 825 1283.611, 825 1283.061 C 825 1282.544, 830.063 1281.894, 836.250 1281.616 C 857.818 1280.647, 884.511 1278.884, 886 1278.330 C 886.825 1278.023, 890.313 1277.854, 893.750 1277.955 C 897.633 1278.068, 900 1277.733, 900 1277.069 C 900 1276.399, 902.989 1276, 908 1276 C 912.400 1276, 916 1275.586, 916 1275.079 C 916 1274.572, 919.487 1273.893, 923.750 1273.569 C 928.013 1273.246, 933.975 1272.691, 937 1272.336 C 940.025 1271.981, 945.087 1271.710, 948.250 1271.734 C 951.413 1271.758, 954 1271.378, 954 1270.889 C 954 1270.400, 956.385 1270, 959.300 1270 C 962.215 1270, 965.027 1269.591, 965.550 1269.092 C 966.072 1268.593, 968.750 1267.953, 971.500 1267.670 C 974.250 1267.388, 980.775 1266.389, 986 1265.451 C 991.225 1264.513, 997.374 1263.690, 999.665 1263.623 C 1001.956 1263.555, 1004.168 1263.162, 1004.582 1262.750 C 1004.995 1262.338, 1007.289 1262, 1009.680 1262 C 1012.071 1262, 1014.809 1261.600, 1015.764 1261.112 C 1017.876 1260.031, 1026.893 1258.218, 1037 1256.842 C 1041.125 1256.281, 1045.400 1255.442, 1046.500 1254.979 C 1047.600 1254.515, 1049.850 1253.897, 1051.500 1253.604 C 1053.150 1253.312, 1058.100 1252.358, 1062.500 1251.485 C 1066.900 1250.611, 1071.475 1249.807, 1072.667 1249.698 C 1073.859 1249.589, 1075.171 1249.162, 1075.584 1248.750 C 1075.996 1248.338, 1077.582 1248, 1079.108 1248 C 1080.634 1248, 1082.131 1247.598, 1082.435 1247.106 C 1082.739 1246.614, 1084.678 1245.970, 1086.744 1245.675 C 1088.810 1245.379, 1091.625 1244.884, 1093 1244.573 C 1094.375 1244.262, 1098.425 1243.359, 1102 1242.565 C 1108.535 1241.114, 1110.876 1240.480, 1121 1237.419 C 1124.025 1236.505, 1127.509 1235.665, 1128.743 1235.552 C 1129.976 1235.440, 1131.289 1235.045, 1131.659 1234.674 C 1132.030 1234.303, 1133.357 1234, 1134.608 1234 C 1135.859 1234, 1137.123 1233.609, 1137.419 1233.132 C 1137.714 1232.654, 1140.215 1231.964, 1142.978 1231.597 C 1145.740 1231.231, 1148 1230.603, 1148 1230.203 C 1148 1229.803, 1151.037 1228.625, 1154.750 1227.586 C 1158.463 1226.547, 1161.950 1225.433, 1162.500 1225.112 C 1164.435 1223.980, 1176.416 1221.139, 1177.203 1221.626 C 1177.641 1221.896, 1178 1221.641, 1178 1221.059 C 1178 1220.477, 1178.681 1220, 1179.514 1220 C 1180.346 1220, 1181.809 1219.616, 1182.764 1219.147 C 1188.436 1216.361, 1191.845 1214.999, 1194.500 1214.457 C 1196.150 1214.120, 1198.625 1213.366, 1200 1212.782 C 1201.375 1212.198, 1203.850 1211.158, 1205.500 1210.471 C 1207.150 1209.784, 1210.203 1208.497, 1212.284 1207.611 C 1214.365 1206.725, 1216.953 1206, 1218.034 1206 C 1219.115 1206, 1220 1205.640, 1220 1205.201 C 1220 1204.761, 1221.688 1203.801, 1223.750 1203.066 C 1228.182 1201.488, 1234.753 1198.682, 1241 1195.700 C 1243.475 1194.519, 1246.063 1193.603, 1246.750 1193.665 C 1247.438 1193.727, 1248 1193.432, 1248 1193.010 C 1248 1192.588, 1249.463 1191.675, 1251.250 1190.981 C 1257.744 1188.461, 1268.913 1182.949, 1269.523 1181.964 C 1269.866 1181.408, 1272.926 1179.597, 1276.323 1177.939 C 1287.555 1172.456, 1297.585 1166.343, 1306.296 1159.668 C 1308.384 1158.068, 1310.324 1156.990, 1310.607 1157.273 C 1310.890 1157.556, 1312.133 1156.823, 1313.369 1155.644 C 1314.605 1154.465, 1316.659 1152.825, 1317.933 1152 C 1322.972 1148.737, 1330.629 1141.979, 1341.801 1130.934 C 1357.053 1115.856, 1362.073 1109.215, 1369.723 1094 C 1372.351 1088.775, 1374.838 1084.350, 1375.250 1084.167 C 1375.662 1083.983, 1376 1082.997, 1376 1081.976 C 1376 1080.954, 1376.369 1079.890, 1376.820 1079.612 C 1377.270 1079.333, 1377.722 1076.088, 1377.824 1072.400 C 1377.925 1068.712, 1378.419 1065.200, 1378.920 1064.596 C 1379.422 1063.992, 1380.095 1059.785, 1380.416 1055.249 C 1380.737 1050.712, 1381.259 1043.400, 1381.576 1039 C 1381.893 1034.600, 1382.568 1031, 1383.076 1031 C 1383.592 1031, 1384 1025.503, 1384 1018.559 C 1384 1011.344, 1384.420 1005.858, 1385 1005.500 C 1385.606 1005.125, 1386 997.843, 1386 987 C 1386 976.157, 1385.606 968.875, 1385 968.500 C 1384.399 968.129, 1384 961.323, 1384 951.441 C 1384 941.984, 1383.605 935, 1383.071 935 C 1382.560 935, 1381.915 931.062, 1381.637 926.250 C 1381.060 916.262, 1379.678 904.224, 1378.113 895.551 C 1377.523 892.279, 1377.314 887.891, 1377.648 885.801 C 1378.050 883.287, 1377.874 882, 1377.128 882 C 1376.441 882, 1376 880.044, 1376 877 C 1376 874.250, 1375.550 872, 1375 872 C 1374.450 872, 1374 870.740, 1374 869.199 C 1374 867.659, 1373.110 862.371, 1372.022 857.449 C 1370.934 852.527, 1370.034 847.064, 1370.022 845.309 C 1370.010 843.554, 1369.600 841.871, 1369.110 841.568 C 1368.621 841.266, 1368.003 839.552, 1367.736 837.759 C 1367.470 835.967, 1366.283 830.989, 1365.099 826.699 C 1363.914 822.408, 1363.190 818.501, 1363.489 818.018 C 1363.788 817.534, 1363.575 816.856, 1363.016 816.510 C 1362.457 816.165, 1362 814.777, 1362 813.427 C 1362 812.077, 1361.574 810.191, 1361.054 809.236 C 1360.139 807.556, 1357.541 799.272, 1355.022 790 C 1354.349 787.525, 1352.686 782.350, 1351.326 778.500 C 1349.966 774.650, 1348.594 770.375, 1348.277 769 C 1347.961 767.625, 1347.422 766.275, 1347.081 766 C 1346.739 765.725, 1345.708 763.250, 1344.789 760.500 C 1340.525 747.743, 1339.536 745.082, 1336.792 739 C 1335.179 735.425, 1333.495 731.600, 1333.048 730.500 C 1329.925 722.802, 1325.478 712.755, 1323.400 708.702 C 1322.047 706.064, 1321.206 703.476, 1321.529 702.952 C 1321.853 702.429, 1321.696 702, 1321.180 702 C 1320.665 702, 1319.690 700.538, 1319.014 698.750 C 1317.047 693.543, 1314.723 688.904, 1311.387 683.522 C 1309.675 680.760, 1307.042 675.800, 1305.536 672.500 C 1303.300 667.598, 1298.135 658.372, 1289.500 643.853 C 1288.950 642.928, 1286.953 639.545, 1285.062 636.336 C 1283.171 633.126, 1280.880 629.375, 1279.971 628 C 1279.063 626.625, 1274.314 619.425, 1269.419 612 C 1260.929 599.122, 1250.352 584.878, 1248.750 584.167 C 1248.338 583.983, 1248 583.148, 1248 582.311 C 1248 581.473, 1246.848 579.881, 1245.439 578.774 C 1243.806 577.488, 1243.101 576.180, 1243.492 575.160 C 1243.830 574.281, 1243.806 573.861, 1243.440 574.227 C 1242.836 574.831, 1238.728 570.228, 1232 561.410 C 1227.413 555.398, 1218.715 545.516, 1216.846 544.193 C 1215.831 543.475, 1215 542.379, 1215 541.758 C 1215 537.676, 1160.675 484.553, 1134.500 463.039 C 1121.966 452.738, 1116.255 448.293, 1105.535 440.500 C 1100.240 436.650, 1093.867 431.989, 1091.373 430.143 C 1084.141 424.788, 1062.138 410.180, 1054.500 405.664 C 1046.964 401.207, 1046.998 401.228, 1038.314 396.001 C 1035.116 394.076, 1032.050 392.318, 1031.500 392.093 C 1030.950 391.869, 1028.730 390.574, 1026.568 389.215 C 1021.207 385.848, 966.422 358.541, 961.750 356.909 C 959.688 356.188, 958 355.274, 958 354.879 C 958 354.483, 956.576 353.846, 954.836 353.464 C 953.095 353.082, 948.708 351.437, 945.086 349.809 C 941.464 348.181, 935.366 345.751, 931.536 344.410 C 927.706 343.070, 924.129 341.529, 923.586 340.986 C 923.044 340.444, 921.759 340, 920.730 340 C 918.996 340, 905.709 335.048, 901.764 332.932 C 900.809 332.419, 899.009 331.985, 897.764 331.966 C 896.519 331.947, 893.700 331.063, 891.500 330 C 889.300 328.937, 886.739 328.053, 885.809 328.034 C 884.879 328.015, 883.840 327.550, 883.500 327 C 883.160 326.450, 881.810 326, 880.500 326 C 879.190 326, 877.835 325.543, 877.490 324.984 C 877.144 324.425, 876.400 324.253, 875.836 324.602 C 875.271 324.950, 873.840 324.783, 872.655 324.228 C 871.470 323.674, 867.575 322.420, 864 321.441 C 860.425 320.463, 857.073 319.288, 856.550 318.831 C 856.028 318.374, 854.367 318, 852.859 318 C 851.351 318, 849.852 317.570, 849.527 317.044 C 849.202 316.518, 848.292 316.334, 847.505 316.636 C 846.087 317.180, 837.106 314.769, 833.764 312.947 C 832.809 312.426, 830.890 312, 829.500 312 C 828.110 312, 826.191 311.587, 825.236 311.082 C 823.472 310.150, 809.589 307.189, 802.744 306.285 C 800.678 306.012, 798.739 305.386, 798.435 304.894 C 798.131 304.402, 796.184 304, 794.108 304 C 792.032 304, 790.049 303.716, 789.702 303.369 C 789.355 303.022, 786.019 302.534, 782.288 302.286 C 778.558 302.038, 775.054 301.472, 774.503 301.030 C 773.555 300.269, 770.445 299.697, 760 298.361 C 757.525 298.044, 754.960 297.348, 754.301 296.813 C 753.641 296.277, 751.391 295.919, 749.301 296.017 C 747.210 296.114, 745.050 296.085, 744.500 295.952 C 743.950 295.819, 741.925 295.604, 740 295.474 C 738.075 295.345, 732.900 294.703, 728.500 294.049 C 724.100 293.395, 717.351 292.625, 713.502 292.338 C 709.654 292.051, 706.268 291.433, 705.978 290.965 C 705.689 290.496, 701.525 290.026, 696.726 289.920 C 691.927 289.815, 688 289.361, 688 288.911 C 688 288.462, 677.087 288.076, 663.750 288.054 C 650.413 288.031, 637.928 287.560, 636.007 287.006 C 631.885 285.819, 577.705 285.813, 574 287 M 1029.039 483.169 C 979.195 490.287, 949.249 543.836, 962.920 601.401 C 973.356 645.342, 1007.492 682.630, 1046.292 692.472 C 1060.681 696.122, 1072.374 696.629, 1084.500 694.129 C 1109.351 689.005, 1129.039 673.089, 1140.367 648.967 C 1147.535 633.703, 1149.428 624.543, 1149.454 605 C 1149.468 595.044, 1148.957 586.120, 1148.168 582.500 C 1142.666 557.275, 1131.324 535.015, 1115.290 517.970 C 1096.529 498.027, 1073.628 485.697, 1050.409 483.037 C 1040.256 481.874, 1038.014 481.888, 1029.039 483.169 M 582.269 561.086 C 559.849 563.925, 540.584 574.698, 526.543 592.247 C 515.507 606.040, 507.208 624.633, 503.889 643 C 502.046 653.200, 502.266 676.258, 504.315 687.636 C 512.300 731.974, 540.064 767.397, 577.277 780.724 C 583.674 783.015, 586.428 783.362, 601.353 783.758 C 619.890 784.250, 624.482 783.493, 636.846 777.906 C 656.177 769.170, 674.525 748.793, 683.131 726.500 C 688.892 711.579, 691.292 698.361, 691.303 681.500 C 691.317 660.156, 687.128 641.563, 678.039 622.628 C 663.183 591.677, 635.453 568.211, 607 562.511 C 597.724 560.653, 589.449 560.176, 582.269 561.086 M 940 750.664 C 934.272 753.121, 930.096 757.943, 924.987 768 C 911.142 795.250, 897.190 807.666, 873.692 813.650 C 863.832 816.161, 860.774 816.493, 848 816.442 C 827.020 816.358, 822.353 814.199, 809.740 798.744 C 804.525 792.354, 796.493 788.511, 788.343 788.505 C 782.972 788.501, 781.695 788.891, 778.343 791.564 C 772.698 796.065, 770.619 800.961, 770.775 809.380 C 770.963 819.537, 774.896 826.989, 785.927 838.094 C 793.109 845.325, 796.041 847.479, 804 851.370 C 819.157 858.780, 827.311 860.491, 847.500 860.496 C 864.847 860.500, 872.139 859.536, 889.673 854.920 C 899.672 852.287, 905.663 849.793, 913.634 844.942 C 936.679 830.919, 948.503 817.706, 964.144 788.500 C 969.282 778.907, 969.500 778.188, 969.500 770.840 C 969.500 763.955, 969.196 762.741, 966.494 758.840 C 960.743 750.538, 948.851 746.868, 940 750.664" stroke="none" fill="#fbc31c" fill-rule="evenodd"/></svg>